<?xml version="1.0" standalone="no"?><!DOCTYPE svg PUBLIC "-//W3C//DTD SVG 1.1//EN" "http://www.w3.org/Graphics/SVG/1.1/DTD/svg11.dtd"><svg t="1526573168619" class="icon" style="" viewBox="0 0 1024 1024" version="1.1" xmlns="http://www.w3.org/2000/svg" p-id="2588" xmlns:xlink="http://www.w3.org/1999/xlink" width="200" height="200"><defs><style type="text/css"></style></defs><path d="M104.5 168.9c-22.2 0-41 17.3-41 37.9v610c0 20.5 18.8 37.9 41 37.9h107.8v0.5l566.7-0.9c1.3 0.3 2.6 0.5 3.8 0.5h138.4c20.8 0 36.5-16.3 36.5-37.9v-71.4l2.4-2.7-2.4-2.1V228l2.7-2.7-2.7-2.7v-15.9c0-21.6-15.7-37.9-36.5-37.9H104.5v0.1m0 653.5c-4.8 0-8.8-3.8-8.8-5.7v-58.5l266.8-239.4 67.5 66.7c34.2 33.7 69.5 37.4 83.1 37.4 13.6 0 48.9-3.6 83.1-37.4l67-66.2 262.5 235.5v61.9c0 3.8-1.5 5.7-4.4 5.7h-94.2v-1.5l-722.6 1.5m821.2-110.7l-239.6-215 239.6-236.9v451.9m-830 3.3V255l243.9 241.2L95.7 715m830-500.4L573.5 562.7c-25.6 25.3-50.8 28.1-60.5 28.1-9.7 0-34.8-2.7-60.5-28.1L95.7 209.8v-3.1c0-1.9 4.1-5.7 8.8-5.7h816.8c2.9 0 4.4 1.9 4.4 5.7v7.9m0 0" p-id="2589" fill="#bfbfbf"></path></svg>